<svg width="800" height="600" xmlns="http://www.w3.org/2000/svg">
 <!-- Created with Method Draw - http://github.com/duopixel/Method-Draw/ -->
 <g>
  <title>Layer 1</title>
  <path stroke="#64f464" id="svg_9" d="m239.98653,472.93005c-7.88684,-10.6169 -17.53582,-19.2124 -27.21444,-25.22528c-11.29343,6.16324 -25.04821,9.91619 -40.0436,9.91619c-15.02483,0 -28.7994,-3.76027 -40.07291,-9.91619c-9.6786,6.01288 -19.33744,14.60837 -27.24363,25.22528c-18.35304,24.64941 -20.37143,49.93341 -4.51954,56.48922c7.09914,2.95318 14.54249,0.75205 22.23231,-4.76927c-1.3489,5.59827 -2.13663,11.66607 -2.13663,18.01282c0,28.19698 14.70015,51.03771 32.81649,51.03771c10.91933,0 16.32472,-8.31682 18.92392,-21.05051c2.58962,12.73369 7.99496,21.05051 18.87472,21.05051c18.14611,0 32.84639,-22.84073 32.84639,-51.03771c0,-6.34676 -0.78799,-12.41455 -2.16621,-18.01282c7.70934,5.52132 15.14289,7.72245 22.26174,4.76927c15.84213,-6.55581 13.79394,-31.83982 -4.55859,-56.48922l-0.00001,0zm-67.27742,-24.92815c30.48287,0 55.20607,-18.42368 55.20607,-41.15067s-24.7232,-41.15072 -55.20607,-41.15072c-30.49324,0 -55.23597,18.42734 -55.23597,41.15072s24.74273,41.15067 55.23597,41.15067z" stroke-width="1.5" fill="#00ff00"/>
  <path stroke="#fff" id="svg_10" d="m732.12856,449.71655c-7.31325,-10.84973 -16.26049,-19.63372 -25.23521,-25.77846c-10.47209,6.2984 -23.22652,10.13365 -37.13134,10.13365c-13.93212,0 -26.7049,-3.84273 -37.15852,-10.13365c-8.9747,6.14474 -17.93108,14.92873 -25.26228,25.77846c-17.01828,25.18997 -18.88987,51.02845 -4.19085,57.72802c6.58284,3.01794 13.48486,0.76854 20.61542,-4.87386c-1.2508,5.72104 -1.98124,11.9219 -1.98124,18.40784c0,28.81534 13.63105,52.15696 30.42984,52.15696c10.12519,0 15.13747,-8.49921 17.54764,-21.51214c2.40128,13.01293 7.41351,21.51214 17.50201,21.51214c16.82639,0 30.45757,-23.34162 30.45757,-52.15696c0,-6.48594 -0.73068,-12.6868 -2.00867,-18.40784c7.14866,5.6424 14.04159,7.8918 20.64271,4.87386c14.68997,-6.69957 12.79074,-32.53806 -4.22706,-57.72802l-0.00001,0zm-62.38452,-25.47482c28.26594,0 51.19109,-18.82771 51.19109,-42.0531s-22.92515,-42.05315 -51.19109,-42.05315c-28.27555,0 -51.21881,18.83145 -51.21881,42.05315s22.94326,42.0531 51.21881,42.0531z" stroke-width="1.5" fill="#00ff00"/>
  <path stroke="#fff" id="svg_11" d="m581.28962,188.36276c-7.50445,-11.03599 -16.6856,-19.97078 -25.89496,-26.22101c-10.74587,6.40652 -23.83376,10.30762 -38.1021,10.30762c-14.29636,0 -27.40307,-3.9087 -38.12999,-10.30762c-9.20933,6.25023 -18.39987,15.18502 -25.92274,26.22101c-17.4632,25.62241 -19.38373,51.90447 -4.30041,58.71906c6.75494,3.06975 13.8374,0.78174 21.15439,-4.95753c-1.2835,5.81925 -2.03304,12.12657 -2.03304,18.72385c0,29.31002 13.98742,53.05235 31.22539,53.05235c10.38991,0 15.53322,-8.64512 18.0064,-21.88145c2.46406,13.23633 7.60733,21.88145 17.95958,21.88145c17.2663,0 31.25385,-23.74234 31.25385,-53.05235c0,-6.59729 -0.74979,-12.90459 -2.06118,-18.72385c7.33555,5.73927 14.4087,8.02728 21.18239,4.95753c15.07403,-6.81459 13.12514,-33.09665 -4.33757,-58.71906l-0.00001,0zm-64.01549,-25.91215c29.00492,0 52.52943,-19.15093 52.52943,-42.77504s-23.5245,-42.77509 -52.52943,-42.77509c-29.01479,0 -52.55787,19.15474 -52.55787,42.77509s23.54308,42.77504 52.55787,42.77504z" stroke-width="1.5" fill="#00ff00"/>
  <path stroke="#fff" id="svg_12" d="m251.46777,115.06366c-7.64784,-11.17569 -17.00443,-20.22358 -26.38976,-26.55292c-10.9512,6.48762 -24.28917,10.4381 -38.83015,10.4381c-14.56953,0 -27.92669,-3.95818 -38.85858,-10.4381c-9.3853,6.32935 -18.75145,15.37723 -26.41807,26.55292c-17.79689,25.94675 -19.75411,52.56149 -4.38259,59.46233c6.88402,3.10861 14.10181,0.79163 21.5586,-5.02028c-1.30802,5.89292 -2.07188,12.28007 -2.07188,18.96086c0,29.68103 14.25469,53.7239 31.82205,53.7239c10.58844,0 15.83003,-8.75455 18.35047,-22.15843c2.51114,13.40388 7.75269,22.15843 18.30275,22.15843c17.59622,0 31.85105,-24.04287 31.85105,-53.7239c0,-6.6808 -0.76411,-13.06794 -2.10057,-18.96086c7.47572,5.81191 14.68402,8.12889 21.58714,5.02028c15.36206,-6.90085 13.37594,-33.5156 -4.42045,-59.46233l-0.00001,0zm-65.2387,-26.24015c29.55915,0 53.53316,-19.39335 53.53316,-43.31649s-23.97401,-43.31655 -53.53316,-43.31655c-29.5692,0 -53.56215,19.3972 -53.56215,43.31655s23.99295,43.31649 53.56215,43.31649z" stroke-width="1.5" fill="#00ff00"/>
  <path id="svg_14" d="m641.5,468.45313" opacity="0.5" fill-opacity="null" stroke-opacity="null" stroke-width="1.5" stroke="#000" fill="#fff"/>
  <path stroke="#64f464" id="svg_15" d="m238.28142,395.49162l24.00821,-35.10989l0,0c-25.43478,-10.59109 -32.69256,-30.54245 -16.76748,-46.0928c15.92478,-15.55026 49.82131,-21.61016 78.30841,-13.99983c28.48709,7.61029 42.24271,26.40003 31.77807,43.40916c-10.46409,17.00912 -41.72325,26.67097 -72.21646,22.32108l-45.11076,29.47227z" stroke-width="1.5" fill="#00ff00"/>
 </g>
</svg>