<svg width="87" height="66" viewBox="0 0 87 66" fill="none" xmlns="http://www.w3.org/2000/svg">
<path d="M61.5802 18.284C70.9622 18.284 78.5678 14.2435 78.5678 9.25931C78.5678 4.27511 70.9622 0.234619 61.5802 0.234619C52.1982 0.234619 44.5925 4.27511 44.5925 9.25931C44.5925 14.2435 52.1982 18.284 61.5802 18.284Z" fill="#82BAF6"/>
<path d="M50.9629 26.7778C32.7852 26.7778 18.0493 34.6211 18.0493 44.2963C18.0493 49.9017 22.9954 54.8922 30.6914 58.0988L75.4957 32.6173C69.469 29.0333 60.7108 26.7778 50.9629 26.7778Z" fill="url(#paint0_linear)"/>
<path d="M16.9877 21.4693C26.3697 21.4693 33.9753 17.4288 33.9753 12.4446C33.9753 7.46041 26.3697 3.41992 16.9877 3.41992C7.60563 3.41992 0 7.46041 0 12.4446C0 17.4288 7.60563 21.4693 16.9877 21.4693Z" fill="white"/>
<path d="M19.1111 65.0001L86 26.7778" stroke="white" stroke-miterlimit="10" stroke-linecap="round"/>
<defs>
<linearGradient id="paint0_linear" x1="18.0493" y1="43.7655" x2="73.7901" y2="31.0247" gradientUnits="userSpaceOnUse">
<stop stop-color="#16B157"/>
<stop offset="0.442708" stop-color="#98E35D"/>
<stop offset="0.994792" stop-color="#88FFD5"/>
</linearGradient>
</defs>
</svg>
