<svg width="116" height="60" viewBox="0 0 116 60" fill="none" xmlns="http://www.w3.org/2000/svg">
<path d="M47.1045 13.2349C53.7494 13.2349 59.1362 10.2722 59.1362 6.61744C59.1362 2.96273 53.7494 0 47.1045 0C40.4595 0 35.0728 2.96273 35.0728 6.61744C35.0728 10.2722 40.4595 13.2349 47.1045 13.2349Z" fill="url(#paint0_linear)"/>
<path d="M75.3727 43.0784L65.1082 37.1379C61.2666 34.913 54.9887 34.913 51.1414 37.1379C47.2999 39.3646 47.2999 43.0075 51.1414 45.2323L60.2337 50.5022C61.9826 51.5159 61.9826 53.1754 60.2337 54.1892L51.5538 59.2195" stroke="url(#paint1_linear)" stroke-miterlimit="10" stroke-linecap="round"/>
<path d="M115.165 26.0269L109.981 29.0317C108.223 30.0512 105.374 30.0512 103.618 29.0317L76.7475 13.4617C72.19 10.8191 64.799 10.8191 60.2414 13.4617C55.6819 16.1024 55.6819 20.3853 60.2414 23.0279L97.2824 44.4906C99.9688 46.0485 99.9688 48.5742 97.2824 50.1322C94.5941 51.6901 90.237 51.6901 87.5448 50.1322L79.9743 45.7457" stroke="#82BAF6" stroke-miterlimit="10" stroke-linecap="round"/>
<path d="M51.4373 52.6925L35.6548 43.5479C31.7979 41.3135 25.5353 41.3135 21.688 43.5479C17.8312 45.7823 17.8312 49.408 21.688 51.6424L30.7803 56.9122" stroke="white" stroke-miterlimit="10" stroke-linecap="round"/>
<path d="M39.3721 36.0529C45.5377 36.0529 50.536 33.1565 50.536 29.5835C50.536 26.0105 45.5377 23.114 39.3721 23.114C33.2065 23.114 28.2083 26.0105 28.2083 29.5835C28.2083 33.1565 33.2065 36.0529 39.3721 36.0529Z" fill="white"/>
<path d="M10.9099 42.4898C16.9353 42.4898 21.8198 39.6593 21.8198 36.1678C21.8198 32.6764 16.9353 29.8459 10.9099 29.8459C4.88453 29.8459 0 32.6764 0 36.1678C0 39.6593 4.88453 42.4898 10.9099 42.4898Z" fill="#82BAF6"/>
<path d="M109.409 18.1011L102.399 22.1617" stroke="white" stroke-miterlimit="10" stroke-linecap="round"/>
<path d="M109.409 22.1617L102.399 18.1011" stroke="white" stroke-miterlimit="10" stroke-linecap="round"/>
<defs>
<linearGradient id="paint0_linear" x1="35.0738" y1="6.62281" x2="59.1432" y2="6.62281" gradientUnits="userSpaceOnUse">
<stop stop-color="#16B157"/>
<stop offset="0.5" stop-color="#98E35D"/>
<stop offset="1" stop-color="#88FFD5"/>
</linearGradient>
<linearGradient id="paint1_linear" x1="75.8501" y1="47.3365" x2="47.7829" y2="47.3365" gradientUnits="userSpaceOnUse">
<stop stop-color="#50B45D"/>
<stop offset="0.5" stop-color="#8ADA60"/>
<stop offset="1" stop-color="#A2FCCD"/>
</linearGradient>
</defs>
</svg>
